<svg id="visual" viewBox="0 0 960 540" width="960" height="540" xmlns="http://www.w3.org/2000/svg" xmlns:xlink="http://www.w3.org/1999/xlink" version="1.1"><rect x="0" y="0" width="960" height="540" fill="#009473"></rect><path d="M0 374L74 301L148 292L222 343L295 317L369 384L443 323L517 395L591 281L665 358L738 364L812 409L886 332L960 407L960 541L886 541L812 541L738 541L665 541L591 541L517 541L443 541L369 541L295 541L222 541L148 541L74 541L0 541Z" fill="#28cf9f"></path><path d="M0 397L74 327L148 378L222 412L295 403L369 346L443 408L517 355L591 415L665 354L738 436L812 433L886 392L960 417L960 541L886 541L812 541L738 541L665 541L591 541L517 541L443 541L369 541L295 541L222 541L148 541L74 541L0 541Z" fill="#22be91"></path><path d="M0 445L74 382L148 396L222 377L295 419L369 435L443 337L517 362L591 352L665 368L738 413L812 354L886 353L960 394L960 541L886 541L812 541L738 541L665 541L591 541L517 541L443 541L369 541L295 541L222 541L148 541L74 541L0 541Z" fill="#1dad83"></path><path d="M0 460L74 452L148 398L222 379L295 378L369 460L443 429L517 414L591 444L665 387L738 388L812 378L886 399L960 442L960 541L886 541L812 541L738 541L665 541L591 541L517 541L443 541L369 541L295 541L222 541L148 541L74 541L0 541Z" fill="#179c76"></path><path d="M0 425L74 433L148 476L222 451L295 403L369 462L443 407L517 445L591 487L665 477L738 465L812 401L886 401L960 449L960 541L886 541L812 541L738 541L665 541L591 541L517 541L443 541L369 541L295 541L222 541L148 541L74 541L0 541Z" fill="#118c68"></path><path d="M0 482L74 424L148 445L222 486L295 455L369 439L443 480L517 473L591 431L665 455L738 473L812 502L886 440L960 479L960 541L886 541L812 541L738 541L665 541L591 541L517 541L443 541L369 541L295 541L222 541L148 541L74 541L0 541Z" fill="#0b7c5c"></path><path d="M0 479L74 486L148 454L222 501L295 464L369 512L443 495L517 519L591 477L665 514L738 481L812 505L886 473L960 474L960 541L886 541L812 541L738 541L665 541L591 541L517 541L443 541L369 541L295 541L222 541L148 541L74 541L0 541Z" fill="#056d4f"></path><path d="M0 492L74 530L148 489L222 511L295 482L369 504L443 503L517 520L591 495L665 498L738 485L812 495L886 519L960 523L960 541L886 541L812 541L738 541L665 541L591 541L517 541L443 541L369 541L295 541L222 541L148 541L74 541L0 541Z" fill="#005e43"></path></svg>